# xmcd
#
# Track frame offsets:
#	150
#	17747
#	37622
#	59406
#	83050
#	103244
#	122782
#	141002
#	162303
#	180597
#
# Disc length: 2725 seconds
#
# Revision: 0
# Processed by: cddbd v1.5.1PL0 Copyright (c) Steve Scherf et al.
# Submitted via: EZCDDA 4.3.3.2
#
DISCID=7b0aa30a
DTITLE=ÁÖÂù±Ç - ´Ù½Ã ¸¸³¯¶§ ±îÁö
DYEAR=1900
DGENRE=
TTITLE0=´Ù½Ã ¸¸³¯¶§ ±îÁö
TTITLE1=±'Ù·ÁÁà¿ä
TTITLE2=¿ØÀÏ·Î
TTITLE3=³Ê¸¦ º¸¸ç
TTITLE4=¼Ò¸®¾øÀÌ
TTITLE5=±×¸®¿ò
TTITLE6=±¦Âú¾Æ¿ä
TTITLE7=¹ãÀÌÁÁ¾Æ
TTITLE8=¸ð½Àµé
TTITLE9=Àú³ÐÀº ¹Ù´Ù·Î
EXTD=
EXTT0=
EXTT1=
EXTT2=
EXTT3=
EXTT4=
EXTT5=
EXTT6=
EXTT7=
EXTT8=
EXTT9=
PLAYORDER=
